<svg aria-hidden="true" style="position: absolute; width: 0; height: 0; overflow: hidden;" version="1.1" xmlns="http://www.w3.org/2000/svg" xmlns:xlink="http://www.w3.org/1999/xlink">
    <defs>
        <symbol id="down-arrowhead-icon" viewBox="0 0 100 100">
            <title>Down Arrowhead Icon</title>
            <path d="M92.9 26a7.36 7.36 0 0 0-10.3 0L50 58.6 17.4 26c-2.8-2.8-7.4-2.8-10.3 0s-2.8 7.4 0 10.3L44.9 74a7.1 7.1 0 0 0 5.1 2.1c1.9.1 3.7-.7 5.1-2.1l37.8-37.8c2.8-2.8 2.8-7.4 0-10.2z"/>
        </symbol>
        <symbol id="up-arrowhead-icon" viewBox="0 0 100 100">
            <title>Up Arrowhead Icon</title>
            <path d="M7.1 74c2.8 2.8 7.4 2.8 10.3 0L50 41.4 82.6 74c2.8 2.8 7.4 2.8 10.3 0 2.8-2.8 2.8-7.4 0-10.3L55.1 26a7.1 7.1 0 0 0-5.1-2.1c-1.9-.1-3.7.7-5.1 2.1L7.1 63.7a7.36 7.36 0 0 0 0 10.3z"/>
        </symbol>
        <symbol id="search-icon" viewBox="0 0 100 100">
            <title>Search Icon</title>
            <path d="M39.9 5C29.2 5 19.2 9.8 12.5 18.2c-10.1 12.6-9.9 31.5.4 44a35 35 0 0 0 27 12.7c6.6 0 13.1-1.9 18.7-5.4l.6-.4L82.9 93c2.6 2.7 7.3 2.7 9.9 0a7.2 7.2 0 0 0 2.2-5.1c0-1.9-.7-3.6-2-5L69.2 59.1l.4-.6a34.8 34.8 0 0 0-4.9-43.2A34.46 34.46 0 0 0 39.9 5m17.6 52.6c-4.7 4.7-11 7.3-17.6 7.3-6.7 0-12.9-2.6-17.6-7.3-4.7-4.7-7.3-11-7.3-17.6 0-6.7 2.6-12.9 7.3-17.6 4.7-4.7 11-7.3 17.6-7.3 6.7 0 12.9 2.6 17.6 7.3 4.7 4.7 7.3 11 7.3 17.6s-2.6 12.9-7.3 17.6"/>
        </symbol>
        <symbol id="dismiss-icon" viewBox="0 0 100 100">
            <title>Dismiss Icon</title>
            <path d="M63 50l29.2-29.2a9.2 9.2 0 0 0 .1-13.1 9.3 9.3 0 0 0-13.1.1L50 37 20.8 7.8a9.2 9.2 0 0 0-13.1-.1 9.3 9.3 0 0 0 .1 13.1L37 50 7.8 79.2a9.2 9.2 0 0 0-.1 13.1 9.3 9.3 0 0 0 13.1-.1L50 63l29.2 29.2a9.2 9.2 0 0 0 13.1.1 9.3 9.3 0 0 0-.1-13.1L63 50z"/>
        </symbol>
        <symbol id="up-arrow-icon" viewBox="0 0 100 100">
            <title>Up Arrow Icon</title>
            <path d="M12.8 48.4a6.4 6.4 0 0 0 8.9 0l22-22v62.3c0 3.5 2.8 6.3 6.3 6.3s6.3-2.8 6.3-6.3V26.4l22 22a6.4 6.4 0 0 0 8.9 0 6.4 6.4 0 0 0 0-8.9L54.4 6.8C53.2 5.6 51.6 5 50 5s-3.2.6-4.4 1.8L12.8 39.6a6.28 6.28 0 0 0 0 8.8z"/>
        </symbol>
        <symbol id="ellipsis-icon" viewBox="0 0 100 100">
            <title>Ellipsis Icon</title>
            <path d="M16.2 61.2C10 61.2 5 56.2 5 50c0-6.2 5-11.2 11.2-11.2 6.2 0 11.2 5 11.2 11.2.1 6.2-4.9 11.2-11.2 11.2M50 61.2c-6.2 0-11.2-5-11.2-11.2 0-6.2 5-11.2 11.2-11.2 6.2 0 11.2 5 11.2 11.2 0 6.2-5 11.2-11.2 11.2M83.8 61.2c-6.2 0-11.2-5-11.2-11.2 0-6.2 5-11.2 11.2-11.2C90 38.8 95 43.8 95 50c0 6.2-5 11.2-11.2 11.2"/>
        </symbol>
        <symbol id="burger-icon" viewBox="0 0 100 100">
            <title>Burger Icon</title>
            <path d="M89 74H11.11a6 6 0 1 0 0 12h77.78A6 6 0 0 0 95 80a5.9 5.9 0 0 0-6-6zm0-30H11.11a6 6 0 1 0 0 12h77.78A6 6 0 0 0 95 50a5.9 5.9 0 0 0-6-6zm0-30H11.11a6 6 0 1 0 0 12h77.78A6 6 0 0 0 95 20a5.9 5.9 0 0 0-6-6z"/>
        </symbol>
        <symbol id="plus-icon" viewBox="0 0 100 100">
            <title>Plus Icon</title>
            <path d="M83.8 39H61V16.2C61 10 56.2 5 50 5s-11 5-11 11.2V39H16.2C10 39 5 43.8 5 50s5 11 11.2 11H39v22.8C39 90 43.8 95 50 95s11-5 11-11.2V61h22.8C90 61 95 56.2 95 50s-5-11-11.2-11z"/>
        </symbol>
        <symbol id="pencil-icon" viewBox="0 0 100 100">
            <title>Pencil Icon</title>
            <path d="M28.3 86.3L13.7 71.7a3.98 3.98 0 0 1 0-5.7L71.9 7.8c1.6-1.6 4.1-1.6 5.7 0l14.6 14.6c1.6 1.6 1.6 4.1 0 5.7L34 86.3a3.98 3.98 0 0 1-5.7 0zM5.1 92.7l.7-14.3c.1-1.8 2.3-2.7 3.6-1.4L23 90.6c1.3 1.3.4 3.5-1.4 3.6l-14.3.7c-1.2 0-2.2-1-2.2-2.2z"/>
        </symbol>
        <symbol id="paper-plane-icon" viewBox="0 0 100 100">
            <title>Paper Plane Icon</title>
            <path d="M5.1 90.8l7.6-32.9a3.5 3.5 0 0 1 3-2.7l42.5-4.4c1.2-.1 1.2-1.9 0-2.1l-42.5-4.1a3.3 3.3 0 0 1-3-2.6L5.1 9.2C4.4 6.4 7.4 4.1 10 5.4L93.1 47a3.5 3.5 0 0 1 0 6.2L10 94.6c-2.6 1.3-5.6-1-4.9-3.8z"/>
        </symbol>
    </defs>
</svg>